Coordinates
version=1
nRows=15
nColumns=19
inDegrees=yes

Units are S.I. units (second, meters, Newtons, ...)
If the header above contains a line with 'inDegrees', this indicates whether rotational values are in degrees (yes) or radians (no).

endheader
time	pelvis_to_ground_rx	pelvis_to_ground_ry	pelvis_to_ground_rz	pelvis_to_ground_tx	pelvis_to_ground_ty	pelvis_to_ground_tz	left_hip_abduction	left_hip_rotation	left_hip_flexion	left_knee_flexion	left_ankle_flexion	left_subtalar_angle	right_hip_abduction	right_hip_rotation	right_hip_flexion	right_knee_flexion	right_ankle_flexion	right_subtalar_angle
      0.29000000	     97.15975773	     14.38258891	     -3.55824369	     -1.59712587	     -0.72081446	      0.73677871	    -13.69553440	    -11.80008273	      6.07583384	    -27.27750381	      5.63414479	     -7.22278284	     -0.19223782	    -10.39087002	     35.58751162	    -50.60308242	     -4.59244411	    -11.95040430
      0.30000000	     97.43774301	     15.35439780	     -3.75003911	     -1.58732372	     -0.72077893	      0.73519986	    -13.85705824	    -11.97616807	      5.41767973	    -27.48362553	      6.07873991	     -6.92324443	     -1.03483281	    -10.42926485	     36.37213941	    -48.09932900	     -4.35807519	    -10.48973776
      0.31000000	     97.71141024	     16.30067478	     -3.87813491	     -1.57740532	     -0.72073138	      0.73353243	    -14.00154248	    -12.16743953	      4.65383228	    -27.64658401	      6.44409985	     -6.82818449	     -1.95852958	    -10.38332539	     36.83655834	    -45.35615697	     -4.77161919	     -9.55941460
      0.32000000	     97.96999113	     17.20885561	     -3.93434475	     -1.56728988	     -0.72067268	      0.73176249	    -14.12265401	    -12.37524848	      3.78946834	    -27.80266257	      6.89562070	     -6.61191923	     -2.90141514	    -10.31041755	     36.98398323	    -42.47527525	     -5.04815088	     -8.45065042
      0.33000000	     98.24223011	     18.00995442	     -3.95195530	     -1.55692555	     -0.72056535	      0.72988837	    -14.25389102	    -12.57514274	      2.84302467	    -27.92972903	      7.36688112	     -6.30966505	     -3.86703204	    -10.13664820	     36.86552446	    -39.55853521	     -5.28302649	     -7.38313802
      0.34000000	     98.49706272	     18.72437157	     -3.87384686	     -1.54625305	     -0.72042162	      0.72791315	    -14.39173362	    -12.85858668	      1.75019948	    -28.04249395	      7.55402968	     -6.19505988	     -4.78743310	     -9.92391905	     36.45810265	    -36.69791178	     -5.48136436	     -7.01002875
      0.35000000	     98.68768139	     19.32672564	     -3.80657406	     -1.53526051	     -0.72026873	      0.72587396	    -14.44352347	    -13.06901712	      0.73094513	    -28.26267170	      8.12281712	     -5.96616210	     -5.53946817	     -9.70481279	     35.93773749	    -33.97351078	     -6.15580824	     -6.14028949
      0.36000000	     98.86741630	     19.78390000	     -3.66147286	     -1.52393809	     -0.72005183	      0.72375482	    -14.52949454	    -13.31728692	     -0.38937164	    -28.51005408	      8.30341409	     -5.85958833	     -6.19880611	     -9.41264778	     35.24679647	    -31.50526996	     -6.38369827	     -5.87307424
      0.37000000	     98.95684125	     20.12804338	     -3.55167916	     -1.51229922	     -0.71982696	      0.72163626	    -14.51716403	    -13.52494261	     -1.37050758	    -28.92605154	      8.77826997	     -5.65167497	     -6.60874764	     -9.16746057	     34.55872901	    -29.31813513	     -7.04742503	     -5.46034652
      0.38000000	     98.99517796	     20.31661117	     -3.41925479	     -1.50037811	     -0.71955098	      0.71951204	    -14.48077816	    -13.65961170	     -2.29196816	    -29.48698752	      8.88304287	     -5.57178761	     -6.85336302	     -8.85133609	     33.83829630	    -27.49182718	     -7.20793464	     -5.37057934
      0.39000000	     98.93315855	     20.37791013	     -3.31071310	     -1.48819399	     -0.71926969	      0.71745221	    -14.34380181	    -13.68886857	     -3.02917962	    -30.28239862	      8.97491676	     -5.51090811	     -6.85001722	     -8.54452135	     33.16089990	    -26.02133440	     -7.39950771	     -5.34975443
      0.40000000	     98.77256045	     20.30925915	     -3.25076392	     -1.47579746	     -0.71898588	      0.71548790	    -14.09475771	    -13.56022785	     -3.51494447	    -31.35828306	      8.97399733	     -5.46316947	     -6.62310605	     -8.20664776	     32.55972064	    -24.91177861	     -7.48665366	     -5.43911367
      0.41000000	     98.49875623	     20.12848407	     -3.21788256	     -1.46320754	     -0.71871388	      0.71364866	    -13.70416301	    -13.20537875	     -3.72984551	    -32.75152531	      8.74546680	     -5.13282946	     -6.18487032	     -7.82547645	     32.01026765	    -24.14306235	     -7.47701458	     -6.17893508
      0.42000000	     98.11004697	     19.80828695	     -3.20145866	     -1.45049044	     -0.71844056	      0.71195512	    -13.17081098	    -12.56404076	     -3.65685080	    -34.48021112	      8.56978483	     -5.16756789	     -5.56279137	     -7.33444041	     31.50645564	    -23.69219921	     -7.35815081	     -6.33475588
      0.43000000	     97.59001240	     19.38816434	     -3.23959194	     -1.43765681	     -0.71822432	      0.71045838	    -12.45395707	    -11.63593564	     -3.23845872	    -36.54824795	      7.87282639	     -4.93649058	     -4.77051936	     -6.71248666	     31.05814450	    -23.48743993	     -6.78516483	     -6.97892168
